<svg width="254" height="149" viewBox="0 0 254 149" fill="none" xmlns="http://www.w3.org/2000/svg">
<circle cx="4.3334" cy="32.653" r="4" transform="rotate(-5 4.3334 32.653)" fill="#F3A73C"/>
<circle cx="20.2725" cy="31.2585" r="4" transform="rotate(-5 20.2725 31.2585)" fill="#F3A73C"/>
<circle cx="36.2116" cy="29.8639" r="4" transform="rotate(-5 36.2116 29.8639)" fill="#F3A73C"/>
<circle cx="52.1508" cy="28.4694" r="4" transform="rotate(-5 52.1508 28.4694)" fill="#F3A73C"/>
<circle cx="68.0899" cy="27.0751" r="4" transform="rotate(-5 68.0899 27.0751)" fill="#F3A73C"/>
<circle cx="84.029" cy="25.6806" r="4" transform="rotate(-5 84.029 25.6806)" fill="#F3A73C"/>
<circle cx="99.9681" cy="24.2861" r="4" transform="rotate(-5 99.9681 24.2861)" fill="#F3A73C"/>
<circle cx="115.907" cy="22.8915" r="4" transform="rotate(-5 115.907 22.8915)" fill="#F3A73C"/>
<circle cx="131.846" cy="21.497" r="4" transform="rotate(-5 131.846 21.497)" fill="#F3A73C"/>
<circle cx="147.785" cy="20.1025" r="4" transform="rotate(-5 147.785 20.1025)" fill="#F3A73C"/>
<circle cx="5.7279" cy="48.5922" r="4" transform="rotate(-5 5.7279 48.5922)" fill="#F3A73C"/>
<circle cx="21.667" cy="47.1977" r="4" transform="rotate(-5 21.667 47.1977)" fill="#F3A73C"/>
<circle cx="37.6061" cy="45.8031" r="4" transform="rotate(-5 37.6061 45.8031)" fill="#F3A73C"/>
<circle cx="53.5453" cy="44.4086" r="4" transform="rotate(-5 53.5453 44.4086)" fill="#F3A73C"/>
<circle cx="69.4844" cy="43.0143" r="4" transform="rotate(-5 69.4844 43.0143)" fill="#F3A73C"/>
<circle cx="85.4235" cy="41.6198" r="4" transform="rotate(-5 85.4235 41.6198)" fill="#F3A73C"/>
<circle cx="101.363" cy="40.2253" r="4" transform="rotate(-5 101.363 40.2253)" fill="#F3A73C"/>
<circle cx="117.302" cy="38.8307" r="4" transform="rotate(-5 117.302 38.8307)" fill="#F3A73C"/>
<circle cx="133.241" cy="37.4362" r="4" transform="rotate(-5 133.241 37.4362)" fill="#F3A73C"/>
<circle cx="149.18" cy="36.0417" r="4" transform="rotate(-5 149.18 36.0417)" fill="#F3A73C"/>
<circle cx="7.12237" cy="64.5312" r="4" transform="rotate(-5 7.12237 64.5312)" fill="#F3A73C"/>
<circle cx="23.0615" cy="63.1366" r="4" transform="rotate(-5 23.0615 63.1366)" fill="#F3A73C"/>
<circle cx="39.0006" cy="61.7421" r="4" transform="rotate(-5 39.0006 61.7421)" fill="#F3A73C"/>
<circle cx="54.9397" cy="60.3476" r="4" transform="rotate(-5 54.9397 60.3476)" fill="#F3A73C"/>
<circle cx="70.8788" cy="58.9533" r="4" transform="rotate(-5 70.8788 58.9533)" fill="#F3A73C"/>
<circle cx="86.818" cy="57.5588" r="4" transform="rotate(-5 86.818 57.5588)" fill="#F3A73C"/>
<circle cx="102.757" cy="56.1642" r="4" transform="rotate(-5 102.757 56.1642)" fill="#F3A73C"/>
<circle cx="118.696" cy="54.7697" r="4" transform="rotate(-5 118.696 54.7697)" fill="#F3A73C"/>
<circle cx="134.635" cy="53.3752" r="4" transform="rotate(-5 134.635 53.3752)" fill="#F3A73C"/>
<circle cx="150.574" cy="51.9806" r="4" transform="rotate(-5 150.574 51.9806)" fill="#F3A73C"/>
<circle cx="8.51687" cy="80.4704" r="4" transform="rotate(-5 8.51687 80.4704)" fill="#F3A73C"/>
<circle cx="24.456" cy="79.0759" r="4" transform="rotate(-5 24.456 79.0759)" fill="#F3A73C"/>
<circle cx="40.3951" cy="77.6813" r="4" transform="rotate(-5 40.3951 77.6813)" fill="#F3A73C"/>
<circle cx="56.3342" cy="76.2868" r="4" transform="rotate(-5 56.3342 76.2868)" fill="#F3A73C"/>
<circle cx="72.2733" cy="74.8925" r="4" transform="rotate(-5 72.2733 74.8925)" fill="#F3A73C"/>
<circle cx="88.2124" cy="73.498" r="4" transform="rotate(-5 88.2124 73.498)" fill="#F3A73C"/>
<circle cx="104.152" cy="72.1034" r="4" transform="rotate(-5 104.152 72.1034)" fill="#F3A73C"/>
<circle cx="120.091" cy="70.7089" r="4" transform="rotate(-5 120.091 70.7089)" fill="#F3A73C"/>
<circle cx="136.03" cy="69.3144" r="4" transform="rotate(-5 136.03 69.3144)" fill="#F3A73C"/>
<circle cx="151.969" cy="67.9198" r="4" transform="rotate(-5 151.969 67.9198)" fill="#F3A73C"/>
<circle cx="9.91137" cy="96.4093" r="4" transform="rotate(-5 9.91137 96.4093)" fill="#F3A73C"/>
<circle cx="25.8505" cy="95.0148" r="4" transform="rotate(-5 25.8505 95.0148)" fill="#F3A73C"/>
<circle cx="41.7896" cy="93.6203" r="4" transform="rotate(-5 41.7896 93.6203)" fill="#F3A73C"/>
<circle cx="57.7287" cy="92.2258" r="4" transform="rotate(-5 57.7287 92.2258)" fill="#F3A73C"/>
<circle cx="73.6678" cy="90.8315" r="4" transform="rotate(-5 73.6678 90.8315)" fill="#F3A73C"/>
<circle cx="89.607" cy="89.4369" r="4" transform="rotate(-5 89.607 89.4369)" fill="#F3A73C"/>
<circle cx="105.546" cy="88.0424" r="4" transform="rotate(-5 105.546 88.0424)" fill="#F3A73C"/>
<circle cx="121.485" cy="86.6479" r="4" transform="rotate(-5 121.485 86.6479)" fill="#F3A73C"/>
<circle cx="137.424" cy="85.2533" r="4" transform="rotate(-5 137.424 85.2533)" fill="#F3A73C"/>
<circle cx="153.363" cy="83.8588" r="4" transform="rotate(-5 153.363 83.8588)" fill="#F3A73C"/>
<circle cx="11.3059" cy="112.349" r="4" transform="rotate(-5 11.3059 112.349)" fill="#F3A73C"/>
<circle cx="27.245" cy="110.954" r="4" transform="rotate(-5 27.245 110.954)" fill="#F3A73C"/>
<circle cx="43.1841" cy="109.559" r="4" transform="rotate(-5 43.1841 109.559)" fill="#F3A73C"/>
<circle cx="59.1232" cy="108.165" r="4" transform="rotate(-5 59.1232 108.165)" fill="#F3A73C"/>
<circle cx="75.0623" cy="106.771" r="4" transform="rotate(-5 75.0623 106.771)" fill="#F3A73C"/>
<circle cx="91.0014" cy="105.376" r="4" transform="rotate(-5 91.0014 105.376)" fill="#F3A73C"/>
<circle cx="106.941" cy="103.982" r="4" transform="rotate(-5 106.941 103.982)" fill="#F3A73C"/>
<circle cx="122.88" cy="102.587" r="4" transform="rotate(-5 122.88 102.587)" fill="#F3A73C"/>
<circle cx="138.819" cy="101.193" r="4" transform="rotate(-5 138.819 101.193)" fill="#F3A73C"/>
<circle cx="154.758" cy="99.798" r="4" transform="rotate(-5 154.758 99.798)" fill="#F3A73C"/>
<circle cx="12.7003" cy="128.288" r="4" transform="rotate(-5 12.7003 128.288)" fill="#F3A73C"/>
<circle cx="28.6395" cy="126.893" r="4" transform="rotate(-5 28.6395 126.893)" fill="#F3A73C"/>
<circle cx="44.5786" cy="125.499" r="4" transform="rotate(-5 44.5786 125.499)" fill="#F3A73C"/>
<circle cx="60.5177" cy="124.104" r="4" transform="rotate(-5 60.5177 124.104)" fill="#F3A73C"/>
<circle cx="76.4568" cy="122.71" r="4" transform="rotate(-5 76.4568 122.71)" fill="#F3A73C"/>
<circle cx="92.3959" cy="121.315" r="4" transform="rotate(-5 92.3959 121.315)" fill="#F3A73C"/>
<circle cx="108.335" cy="119.921" r="4" transform="rotate(-5 108.335 119.921)" fill="#F3A73C"/>
<circle cx="124.274" cy="118.526" r="4" transform="rotate(-5 124.274 118.526)" fill="#F3A73C"/>
<circle cx="140.213" cy="117.132" r="4" transform="rotate(-5 140.213 117.132)" fill="#F3A73C"/>
<circle cx="156.152" cy="115.737" r="4" transform="rotate(-5 156.152 115.737)" fill="#F3A73C"/>
<circle cx="14.0948" cy="144.227" r="4" transform="rotate(-5 14.0948 144.227)" fill="#F3A73C"/>
<circle cx="30.034" cy="142.832" r="4" transform="rotate(-5 30.034 142.832)" fill="#F3A73C"/>
<circle cx="45.9731" cy="141.438" r="4" transform="rotate(-5 45.9731 141.438)" fill="#F3A73C"/>
<circle cx="61.9122" cy="140.043" r="4" transform="rotate(-5 61.9122 140.043)" fill="#F3A73C"/>
<circle cx="77.8513" cy="138.649" r="4" transform="rotate(-5 77.8513 138.649)" fill="#F3A73C"/>
<circle cx="93.7904" cy="137.254" r="4" transform="rotate(-5 93.7904 137.254)" fill="#F3A73C"/>
<circle cx="109.73" cy="135.86" r="4" transform="rotate(-5 109.73 135.86)" fill="#F3A73C"/>
<circle cx="125.669" cy="134.465" r="4" transform="rotate(-5 125.669 134.465)" fill="#F3A73C"/>
<circle cx="141.608" cy="133.071" r="4" transform="rotate(-5 141.608 133.071)" fill="#F3A73C"/>
<circle cx="157.547" cy="131.676" r="4" transform="rotate(-5 157.547 131.676)" fill="#F3A73C"/>
<circle cx="165.724" cy="17.4899" r="4" transform="rotate(-5 165.724 17.4899)" fill="#F3A73C"/>
<circle cx="181.663" cy="16.0954" r="4" transform="rotate(-5 181.663 16.0954)" fill="#F3A73C"/>
<circle cx="197.603" cy="14.7009" r="4" transform="rotate(-5 197.603 14.7009)" fill="#F3A73C"/>
<circle cx="213.542" cy="13.3063" r="4" transform="rotate(-5 213.542 13.3063)" fill="#F3A73C"/>
<circle cx="229.481" cy="11.912" r="4" transform="rotate(-5 229.481 11.912)" fill="#F3A73C"/>
<circle cx="245.42" cy="10.5175" r="4" transform="rotate(-5 245.42 10.5175)" fill="#F3A73C"/>
<circle cx="167.119" cy="33.4291" r="4" transform="rotate(-5 167.119 33.4291)" fill="#F3A73C"/>
<circle cx="183.058" cy="32.0346" r="4" transform="rotate(-5 183.058 32.0346)" fill="#F3A73C"/>
<circle cx="198.997" cy="30.6401" r="4" transform="rotate(-5 198.997 30.6401)" fill="#F3A73C"/>
<circle cx="214.936" cy="29.2455" r="4" transform="rotate(-5 214.936 29.2455)" fill="#F3A73C"/>
<circle cx="230.875" cy="27.8512" r="4" transform="rotate(-5 230.875 27.8512)" fill="#F3A73C"/>
<circle cx="246.814" cy="26.4567" r="4" transform="rotate(-5 246.814 26.4567)" fill="#F3A73C"/>
<circle cx="168.513" cy="49.3681" r="4" transform="rotate(-5 168.513 49.3681)" fill="#F3A73C"/>
<circle cx="184.452" cy="47.9736" r="4" transform="rotate(-5 184.452 47.9736)" fill="#F3A73C"/>
<circle cx="200.392" cy="46.579" r="4" transform="rotate(-5 200.392 46.579)" fill="#F3A73C"/>
<circle cx="216.331" cy="45.1845" r="4" transform="rotate(-5 216.331 45.1845)" fill="#F3A73C"/>
<circle cx="232.27" cy="43.7902" r="4" transform="rotate(-5 232.27 43.7902)" fill="#F3A73C"/>
<circle cx="248.209" cy="42.3957" r="4" transform="rotate(-5 248.209 42.3957)" fill="#F3A73C"/>
<circle cx="169.908" cy="65.3073" r="4" transform="rotate(-5 169.908 65.3073)" fill="#F3A73C"/>
<circle cx="185.847" cy="63.9128" r="4" transform="rotate(-5 185.847 63.9128)" fill="#F3A73C"/>
<circle cx="201.786" cy="62.5182" r="4" transform="rotate(-5 201.786 62.5182)" fill="#F3A73C"/>
<circle cx="217.725" cy="61.1237" r="4" transform="rotate(-5 217.725 61.1237)" fill="#F3A73C"/>
<circle cx="233.664" cy="59.7294" r="4" transform="rotate(-5 233.664 59.7294)" fill="#F3A73C"/>
<circle cx="249.603" cy="58.3349" r="4" transform="rotate(-5 249.603 58.3349)" fill="#F3A73C"/>
<circle cx="171.302" cy="81.2463" r="4" transform="rotate(-5 171.302 81.2463)" fill="#F3A73C"/>
<circle cx="187.241" cy="79.8517" r="4" transform="rotate(-5 187.241 79.8517)" fill="#F3A73C"/>
<circle cx="203.18" cy="78.4572" r="4" transform="rotate(-5 203.18 78.4572)" fill="#F3A73C"/>
<circle cx="219.12" cy="77.0627" r="4" transform="rotate(-5 219.12 77.0627)" fill="#F3A73C"/>
<circle cx="235.059" cy="75.6684" r="4" transform="rotate(-5 235.059 75.6684)" fill="#F3A73C"/>
<circle cx="250.998" cy="74.2738" r="4" transform="rotate(-5 250.998 74.2738)" fill="#F3A73C"/>
<circle cx="172.697" cy="97.1855" r="4" transform="rotate(-5 172.697 97.1855)" fill="#F3A73C"/>
<circle cx="188.636" cy="95.7909" r="4" transform="rotate(-5 188.636 95.7909)" fill="#F3A73C"/>
<circle cx="204.575" cy="94.3964" r="4" transform="rotate(-5 204.575 94.3964)" fill="#F3A73C"/>
<circle cx="220.514" cy="93.0019" r="4" transform="rotate(-5 220.514 93.0019)" fill="#F3A73C"/>
<circle cx="236.453" cy="91.6076" r="4" transform="rotate(-5 236.453 91.6076)" fill="#F3A73C"/>
<circle cx="252.392" cy="90.2131" r="4" transform="rotate(-5 252.392 90.2131)" fill="#F3A73C"/>
<circle cx="174.091" cy="113.125" r="4" transform="rotate(-5 174.091 113.125)" fill="#F3A73C"/>
<circle cx="190.03" cy="111.73" r="4" transform="rotate(-5 190.03 111.73)" fill="#F3A73C"/>
<circle cx="205.969" cy="110.336" r="4" transform="rotate(-5 205.969 110.336)" fill="#F3A73C"/>
<circle cx="221.909" cy="108.941" r="4" transform="rotate(-5 221.909 108.941)" fill="#F3A73C"/>
<circle cx="237.848" cy="107.547" r="4" transform="rotate(-5 237.848 107.547)" fill="#F3A73C"/>
<circle cx="253.787" cy="106.152" r="4" transform="rotate(-5 253.787 106.152)" fill="#F3A73C"/>
<circle cx="175.486" cy="129.064" r="4" transform="rotate(-5 175.486 129.064)" fill="#F3A73C"/>
<circle cx="191.425" cy="127.669" r="4" transform="rotate(-5 191.425 127.669)" fill="#F3A73C"/>
<circle cx="207.364" cy="126.275" r="4" transform="rotate(-5 207.364 126.275)" fill="#F3A73C"/>
<circle cx="223.303" cy="124.88" r="4" transform="rotate(-5 223.303 124.88)" fill="#F3A73C"/>
<circle cx="239.242" cy="123.486" r="4" transform="rotate(-5 239.242 123.486)" fill="#F3A73C"/>
<circle cx="255.181" cy="122.091" r="4" transform="rotate(-5 255.181 122.091)" fill="#F3A73C"/>
</svg>
