<svg width="301" height="147" viewBox="0 0 301 147" fill="none" xmlns="http://www.w3.org/2000/svg">
<circle cx="-1.11844" cy="29.6523" r="4" transform="rotate(-5 -1.11844 29.6523)" fill="white"/>
<circle cx="14.8207" cy="28.2578" r="4" transform="rotate(-5 14.8207 28.2578)" fill="white"/>
<circle cx="30.7598" cy="26.8633" r="4" transform="rotate(-5 30.7598 26.8633)" fill="white"/>
<circle cx="46.6989" cy="25.4688" r="4" transform="rotate(-5 46.6989 25.4688)" fill="white"/>
<circle cx="62.638" cy="24.0743" r="4" transform="rotate(-5 62.638 24.0743)" fill="white"/>
<circle cx="78.5772" cy="22.6799" r="4" transform="rotate(-5 78.5772 22.6799)" fill="white"/>
<circle cx="94.5163" cy="21.2854" r="4" transform="rotate(-5 94.5163 21.2854)" fill="white"/>
<circle cx="110.455" cy="19.8909" r="4" transform="rotate(-5 110.455 19.8909)" fill="white"/>
<circle cx="126.395" cy="18.4964" r="4" transform="rotate(-5 126.395 18.4964)" fill="white"/>
<circle cx="0.276029" cy="45.5914" r="4" transform="rotate(-5 0.276029 45.5914)" fill="white"/>
<circle cx="16.2152" cy="44.1969" r="4" transform="rotate(-5 16.2152 44.1969)" fill="white"/>
<circle cx="32.1543" cy="42.8024" r="4" transform="rotate(-5 32.1543 42.8024)" fill="white"/>
<circle cx="48.0934" cy="41.4079" r="4" transform="rotate(-5 48.0934 41.4079)" fill="white"/>
<circle cx="64.0325" cy="40.0134" r="4" transform="rotate(-5 64.0325 40.0134)" fill="white"/>
<circle cx="79.9716" cy="38.619" r="4" transform="rotate(-5 79.9716 38.619)" fill="white"/>
<circle cx="95.9107" cy="37.2245" r="4" transform="rotate(-5 95.9107 37.2245)" fill="white"/>
<circle cx="111.85" cy="35.83" r="4" transform="rotate(-5 111.85 35.83)" fill="white"/>
<circle cx="127.789" cy="34.4355" r="4" transform="rotate(-5 127.789 34.4355)" fill="white"/>
<circle cx="1.67056" cy="61.5305" r="4" transform="rotate(-5 1.67056 61.5305)" fill="white"/>
<circle cx="17.6097" cy="60.1361" r="4" transform="rotate(-5 17.6097 60.1361)" fill="white"/>
<circle cx="33.5488" cy="58.7416" r="4" transform="rotate(-5 33.5488 58.7416)" fill="white"/>
<circle cx="49.4879" cy="57.3471" r="4" transform="rotate(-5 49.4879 57.3471)" fill="white"/>
<circle cx="65.427" cy="55.9526" r="4" transform="rotate(-5 65.427 55.9526)" fill="white"/>
<circle cx="81.3662" cy="54.5581" r="4" transform="rotate(-5 81.3662 54.5581)" fill="white"/>
<circle cx="97.3053" cy="53.1636" r="4" transform="rotate(-5 97.3053 53.1636)" fill="white"/>
<circle cx="113.244" cy="51.7691" r="4" transform="rotate(-5 113.244 51.7691)" fill="white"/>
<circle cx="129.184" cy="50.3746" r="4" transform="rotate(-5 129.184 50.3746)" fill="white"/>
<circle cx="3.06503" cy="77.4697" r="4" transform="rotate(-5 3.06503 77.4697)" fill="white"/>
<circle cx="19.0042" cy="76.0752" r="4" transform="rotate(-5 19.0042 76.0752)" fill="white"/>
<circle cx="34.9433" cy="74.6807" r="4" transform="rotate(-5 34.9433 74.6807)" fill="white"/>
<circle cx="50.8824" cy="73.2862" r="4" transform="rotate(-5 50.8824 73.2862)" fill="white"/>
<circle cx="66.8215" cy="71.8917" r="4" transform="rotate(-5 66.8215 71.8917)" fill="white"/>
<circle cx="82.7607" cy="70.4972" r="4" transform="rotate(-5 82.7607 70.4972)" fill="white"/>
<circle cx="98.6997" cy="69.1027" r="4" transform="rotate(-5 98.6997 69.1027)" fill="white"/>
<circle cx="114.639" cy="67.7082" r="4" transform="rotate(-5 114.639 67.7082)" fill="white"/>
<circle cx="130.578" cy="66.3137" r="4" transform="rotate(-5 130.578 66.3137)" fill="white"/>
<circle cx="4.4595" cy="93.4088" r="4" transform="rotate(-5 4.4595 93.4088)" fill="white"/>
<circle cx="20.3986" cy="92.0143" r="4" transform="rotate(-5 20.3986 92.0143)" fill="white"/>
<circle cx="36.3377" cy="90.6198" r="4" transform="rotate(-5 36.3377 90.6198)" fill="white"/>
<circle cx="52.2769" cy="89.2253" r="4" transform="rotate(-5 52.2769 89.2253)" fill="white"/>
<circle cx="68.216" cy="87.8308" r="4" transform="rotate(-5 68.216 87.8308)" fill="white"/>
<circle cx="84.1551" cy="86.4363" r="4" transform="rotate(-5 84.1551 86.4363)" fill="white"/>
<circle cx="100.094" cy="85.0418" r="4" transform="rotate(-5 100.094 85.0418)" fill="white"/>
<circle cx="116.033" cy="83.6473" r="4" transform="rotate(-5 116.033 83.6473)" fill="white"/>
<circle cx="131.972" cy="82.2529" r="4" transform="rotate(-5 131.972 82.2529)" fill="white"/>
<circle cx="5.85403" cy="109.348" r="4" transform="rotate(-5 5.85403 109.348)" fill="white"/>
<circle cx="21.7932" cy="107.953" r="4" transform="rotate(-5 21.7932 107.953)" fill="white"/>
<circle cx="37.7323" cy="106.559" r="4" transform="rotate(-5 37.7323 106.559)" fill="white"/>
<circle cx="53.6714" cy="105.164" r="4" transform="rotate(-5 53.6714 105.164)" fill="white"/>
<circle cx="69.6105" cy="103.77" r="4" transform="rotate(-5 69.6105 103.77)" fill="white"/>
<circle cx="85.5497" cy="102.375" r="4" transform="rotate(-5 85.5497 102.375)" fill="white"/>
<circle cx="101.489" cy="100.981" r="4" transform="rotate(-5 101.489 100.981)" fill="white"/>
<circle cx="117.428" cy="99.5864" r="4" transform="rotate(-5 117.428 99.5864)" fill="white"/>
<circle cx="133.367" cy="98.192" r="4" transform="rotate(-5 133.367 98.192)" fill="white"/>
<circle cx="7.2485" cy="125.287" r="4" transform="rotate(-5 7.2485 125.287)" fill="white"/>
<circle cx="23.1877" cy="123.893" r="4" transform="rotate(-5 23.1877 123.893)" fill="white"/>
<circle cx="39.1267" cy="122.498" r="4" transform="rotate(-5 39.1267 122.498)" fill="white"/>
<circle cx="55.0659" cy="121.104" r="4" transform="rotate(-5 55.0659 121.104)" fill="white"/>
<circle cx="71.005" cy="119.709" r="4" transform="rotate(-5 71.005 119.709)" fill="white"/>
<circle cx="86.9441" cy="118.315" r="4" transform="rotate(-5 86.9441 118.315)" fill="white"/>
<circle cx="102.883" cy="116.92" r="4" transform="rotate(-5 102.883 116.92)" fill="white"/>
<circle cx="118.822" cy="115.526" r="4" transform="rotate(-5 118.822 115.526)" fill="white"/>
<circle cx="134.761" cy="114.131" r="4" transform="rotate(-5 134.761 114.131)" fill="white"/>
<circle cx="8.64297" cy="141.226" r="4" transform="rotate(-5 8.64297 141.226)" fill="white"/>
<circle cx="24.5821" cy="139.832" r="4" transform="rotate(-5 24.5821 139.832)" fill="white"/>
<circle cx="40.5212" cy="138.437" r="4" transform="rotate(-5 40.5212 138.437)" fill="white"/>
<circle cx="56.4604" cy="137.043" r="4" transform="rotate(-5 56.4604 137.043)" fill="white"/>
<circle cx="72.3994" cy="135.648" r="4" transform="rotate(-5 72.3994 135.648)" fill="white"/>
<circle cx="88.3386" cy="134.254" r="4" transform="rotate(-5 88.3386 134.254)" fill="white"/>
<circle cx="104.278" cy="132.859" r="4" transform="rotate(-5 104.278 132.859)" fill="white"/>
<circle cx="120.217" cy="131.465" r="4" transform="rotate(-5 120.217 131.465)" fill="white"/>
<circle cx="136.156" cy="130.07" r="4" transform="rotate(-5 136.156 130.07)" fill="white"/>
<circle cx="143.333" cy="16.8838" r="4" transform="rotate(-5 143.333 16.8838)" fill="white"/>
<circle cx="159.272" cy="15.4893" r="4" transform="rotate(-5 159.272 15.4893)" fill="white"/>
<circle cx="175.212" cy="14.0949" r="4" transform="rotate(-5 175.212 14.0949)" fill="white"/>
<circle cx="191.151" cy="12.7004" r="4" transform="rotate(-5 191.151 12.7004)" fill="white"/>
<circle cx="207.09" cy="11.3059" r="4" transform="rotate(-5 207.09 11.3059)" fill="white"/>
<circle cx="223.029" cy="9.91136" r="4" transform="rotate(-5 223.029 9.91136)" fill="white"/>
<circle cx="238.968" cy="8.51689" r="4" transform="rotate(-5 238.968 8.51689)" fill="white"/>
<circle cx="254.907" cy="7.12239" r="4" transform="rotate(-5 254.907 7.12239)" fill="white"/>
<circle cx="270.846" cy="5.72789" r="4" transform="rotate(-5 270.846 5.72789)" fill="white"/>
<circle cx="286.785" cy="4.33342" r="4" transform="rotate(-5 286.785 4.33342)" fill="white"/>
<circle cx="144.728" cy="32.823" r="4" transform="rotate(-5 144.728 32.823)" fill="white"/>
<circle cx="160.667" cy="31.4285" r="4" transform="rotate(-5 160.667 31.4285)" fill="white"/>
<circle cx="176.606" cy="30.034" r="4" transform="rotate(-5 176.606 30.034)" fill="white"/>
<circle cx="192.545" cy="28.6395" r="4" transform="rotate(-5 192.545 28.6395)" fill="white"/>
<circle cx="208.484" cy="27.245" r="4" transform="rotate(-5 208.484 27.245)" fill="white"/>
<circle cx="224.423" cy="25.8505" r="4" transform="rotate(-5 224.423 25.8505)" fill="white"/>
<circle cx="240.363" cy="24.456" r="4" transform="rotate(-5 240.363 24.456)" fill="white"/>
<circle cx="256.302" cy="23.0615" r="4" transform="rotate(-5 256.302 23.0615)" fill="white"/>
<circle cx="272.241" cy="21.667" r="4" transform="rotate(-5 272.241 21.667)" fill="white"/>
<circle cx="288.18" cy="20.2725" r="4" transform="rotate(-5 288.18 20.2725)" fill="white"/>
<circle cx="146.122" cy="48.7621" r="4" transform="rotate(-5 146.122 48.7621)" fill="white"/>
<circle cx="162.061" cy="47.3676" r="4" transform="rotate(-5 162.061 47.3676)" fill="white"/>
<circle cx="178.001" cy="45.9731" r="4" transform="rotate(-5 178.001 45.9731)" fill="white"/>
<circle cx="193.94" cy="44.5786" r="4" transform="rotate(-5 193.94 44.5786)" fill="white"/>
<circle cx="209.879" cy="43.1841" r="4" transform="rotate(-5 209.879 43.1841)" fill="white"/>
<circle cx="225.818" cy="41.7896" r="4" transform="rotate(-5 225.818 41.7896)" fill="white"/>
<circle cx="241.757" cy="40.3951" r="4" transform="rotate(-5 241.757 40.3951)" fill="white"/>
<circle cx="257.696" cy="39.0006" r="4" transform="rotate(-5 257.696 39.0006)" fill="white"/>
<circle cx="273.635" cy="37.6061" r="4" transform="rotate(-5 273.635 37.6061)" fill="white"/>
<circle cx="289.574" cy="36.2117" r="4" transform="rotate(-5 289.574 36.2117)" fill="white"/>
<circle cx="147.517" cy="64.7012" r="4" transform="rotate(-5 147.517 64.7012)" fill="white"/>
<circle cx="163.456" cy="63.3067" r="4" transform="rotate(-5 163.456 63.3067)" fill="white"/>
<circle cx="179.395" cy="61.9122" r="4" transform="rotate(-5 179.395 61.9122)" fill="white"/>
<circle cx="195.334" cy="60.5177" r="4" transform="rotate(-5 195.334 60.5177)" fill="white"/>
<circle cx="211.273" cy="59.1232" r="4" transform="rotate(-5 211.273 59.1232)" fill="white"/>
<circle cx="227.212" cy="57.7287" r="4" transform="rotate(-5 227.212 57.7287)" fill="white"/>
<circle cx="243.152" cy="56.3342" r="4" transform="rotate(-5 243.152 56.3342)" fill="white"/>
<circle cx="259.091" cy="54.9397" r="4" transform="rotate(-5 259.091 54.9397)" fill="white"/>
<circle cx="275.03" cy="53.5452" r="4" transform="rotate(-5 275.03 53.5452)" fill="white"/>
<circle cx="290.969" cy="52.1508" r="4" transform="rotate(-5 290.969 52.1508)" fill="white"/>
<circle cx="148.911" cy="80.6403" r="4" transform="rotate(-5 148.911 80.6403)" fill="white"/>
<circle cx="164.85" cy="79.2458" r="4" transform="rotate(-5 164.85 79.2458)" fill="white"/>
<circle cx="180.79" cy="77.8513" r="4" transform="rotate(-5 180.79 77.8513)" fill="white"/>
<circle cx="196.729" cy="76.4568" r="4" transform="rotate(-5 196.729 76.4568)" fill="white"/>
<circle cx="212.668" cy="75.0623" r="4" transform="rotate(-5 212.668 75.0623)" fill="white"/>
<circle cx="228.607" cy="73.6678" r="4" transform="rotate(-5 228.607 73.6678)" fill="white"/>
<circle cx="244.546" cy="72.2734" r="4" transform="rotate(-5 244.546 72.2734)" fill="white"/>
<circle cx="260.485" cy="70.8789" r="4" transform="rotate(-5 260.485 70.8789)" fill="white"/>
<circle cx="276.424" cy="69.4844" r="4" transform="rotate(-5 276.424 69.4844)" fill="white"/>
<circle cx="292.363" cy="68.0899" r="4" transform="rotate(-5 292.363 68.0899)" fill="white"/>
<circle cx="150.306" cy="96.5794" r="4" transform="rotate(-5 150.306 96.5794)" fill="white"/>
<circle cx="166.245" cy="95.1849" r="4" transform="rotate(-5 166.245 95.1849)" fill="white"/>
<circle cx="182.184" cy="93.7905" r="4" transform="rotate(-5 182.184 93.7905)" fill="white"/>
<circle cx="198.123" cy="92.396" r="4" transform="rotate(-5 198.123 92.396)" fill="white"/>
<circle cx="214.062" cy="91.0014" r="4" transform="rotate(-5 214.062 91.0014)" fill="white"/>
<circle cx="230.001" cy="89.6069" r="4" transform="rotate(-5 230.001 89.6069)" fill="white"/>
<circle cx="245.941" cy="88.2125" r="4" transform="rotate(-5 245.941 88.2125)" fill="white"/>
<circle cx="261.88" cy="86.818" r="4" transform="rotate(-5 261.88 86.818)" fill="white"/>
<circle cx="277.819" cy="85.4235" r="4" transform="rotate(-5 277.819 85.4235)" fill="white"/>
<circle cx="293.758" cy="84.029" r="4" transform="rotate(-5 293.758 84.029)" fill="white"/>
<circle cx="151.7" cy="112.519" r="4" transform="rotate(-5 151.7 112.519)" fill="white"/>
<circle cx="167.639" cy="111.124" r="4" transform="rotate(-5 167.639 111.124)" fill="white"/>
<circle cx="183.579" cy="109.73" r="4" transform="rotate(-5 183.579 109.73)" fill="white"/>
<circle cx="199.518" cy="108.335" r="4" transform="rotate(-5 199.518 108.335)" fill="white"/>
<circle cx="215.457" cy="106.941" r="4" transform="rotate(-5 215.457 106.941)" fill="white"/>
<circle cx="231.396" cy="105.546" r="4" transform="rotate(-5 231.396 105.546)" fill="white"/>
<circle cx="247.335" cy="104.152" r="4" transform="rotate(-5 247.335 104.152)" fill="white"/>
<circle cx="263.274" cy="102.757" r="4" transform="rotate(-5 263.274 102.757)" fill="white"/>
<circle cx="279.213" cy="101.363" r="4" transform="rotate(-5 279.213 101.363)" fill="white"/>
<circle cx="295.152" cy="99.9681" r="4" transform="rotate(-5 295.152 99.9681)" fill="white"/>
<circle cx="153.095" cy="128.458" r="4" transform="rotate(-5 153.095 128.458)" fill="white"/>
<circle cx="169.034" cy="127.063" r="4" transform="rotate(-5 169.034 127.063)" fill="white"/>
<circle cx="184.973" cy="125.669" r="4" transform="rotate(-5 184.973 125.669)" fill="white"/>
<circle cx="200.912" cy="124.274" r="4" transform="rotate(-5 200.912 124.274)" fill="white"/>
<circle cx="216.851" cy="122.88" r="4" transform="rotate(-5 216.851 122.88)" fill="white"/>
<circle cx="232.79" cy="121.485" r="4" transform="rotate(-5 232.79 121.485)" fill="white"/>
<circle cx="248.73" cy="120.091" r="4" transform="rotate(-5 248.73 120.091)" fill="white"/>
<circle cx="264.669" cy="118.696" r="4" transform="rotate(-5 264.669 118.696)" fill="white"/>
<circle cx="280.608" cy="117.302" r="4" transform="rotate(-5 280.608 117.302)" fill="white"/>
<circle cx="296.547" cy="115.907" r="4" transform="rotate(-5 296.547 115.907)" fill="white"/>
</svg>
